{"title":"Kya Dilli Kya Lahore (2014) HINDI Pre DVDRip - GOPI SAHI","uid":10095745,"size":218316028,"categoryP":"video","categoryS":"movies","magnet":"?xt=urn:btih:faabca72ea26ce3f5cd075e802e4fcb7e497dc91&amp;dn=Kya+Dilli+Kya+Lahore+%282014%29+HINDI+Pre+DVDRip+-+GOPI+SAHI&amp;tr=udp%3A%2F%2Ftracker.openbittorrent.com%3A80&amp;tr=udp%3A%2F%2Fopen.demonii.com%3A1337&amp;tr=udp%3A%2F%2Ftracker.coppersurfer.tk%3A6969&amp;tr=udp%3A%2F%2Fexodus.desync.com%3A6969","seeders":1,"leechers":0,"uploader":"jatt13","files":1,"time":1399290228,"description":"Video\nID                             : 1\nFormat                         : AVC\nFormat/Info                    : Advanced Video Codec\nFormat profile                 : &lt;a class=&quot;__cf_email__&quot; href=&quot;/cdn-cgi/l/email-protection&quot; data-cfemail=&quot;9ad2f3fdf2dad6a8b4ab&quot;&gt;[email&amp;#160;protected]&lt;/a&gt;&lt;script cf-hash='f9e31' type=&quot;text/javascript&quot;&gt;\n/* &lt;![CDATA[ */!function(){try{var t=&quot;currentScript&quot;in document?document.currentScript:function(){for(var t=document.getElementsByTagName(&quot;script&quot;),e=t.length;e--;)if(t[e].getAttribute(&quot;cf-hash&quot;))return t[e]}();if(t&amp;&amp;t.previousSibling){var e,r,n,i,c=t.previousSibling,a=c.getAttribute(&quot;data-cfemail&quot;);if(a){for(e=&quot;&quot;,r=parseInt(a.substr(0,2),16),n=2;a.length-n;n+=2)i=parseInt(a.substr(n,2),16)^r,e+=String.fromCharCode(i);e=document.createTextNode(e),c.parentNode.replaceChild(e,c)}}}catch(u){}}();/* ]]&gt; */&lt;/script&gt;\nFormat settings, CABAC         : Yes\nFormat settings, ReFrames      : 4 frames\nCodec ID                       : V_MPEG4/ISO/AVC\nDuration                       : 1h 29mn\nBit rate                       : 286 Kbps\nWidth                          : 640 pixels\nHeight                         : 272 pixels\nDisplay aspect ratio           : 2.35:1\nFrame rate mode                : Constant\nFrame rate                     : 23.976 fps\nColor space                    : YUV\nChroma subsampling             : 4:2:0\nBit depth                      : 8 bits\nScan type                      : Progressive\nBits/(Pixel*Frame)             : 0.068\nStream size                    : 184 MiB (88%)\nDefault                        : Yes\nForced                         : No\n\nAudio\nID                             : 2\nFormat                         : MPEG Audio\nFormat version                 : Version 1\nFormat profile                 : Layer 3\nMode                           : Joint stereo\nMode extension                 : MS Stereo\nCodec ID                       : A_MPEG/L3\nCodec ID/Hint                  : MP3\nDuration                       : 1h 29mn\nBit rate mode                  : Constant\nBit rate                       : 32.0 Kbps\nChannel count                  : 2 channels\nSampling rate                  : 44.1 KHz\nCompression mode               : Lossy\nDelay relative to video        : -129ms\nStream size                    : 20.6 MiB (10%)\nWriting library                : LAME3.98.2\nDefault                        : Yes\nForced                         : No\n[IMG]http://i.imgur.com/EOjCi8y.jpg[/IMG]\n[IMG]http://i.imgur.com/NqDit8c.jpg[/IMG]\n[IMG]http://i.imgur.com/P6GYVna.jpg[/IMG]\n[IMG]http://i.imgur.com/Z4nwhek.jpg[/IMG]","torrent":{"xt":"urn:btih:faabca72ea26ce3f5cd075e802e4fcb7e497dc91","amp;dn":"Kya+Dilli+Kya+Lahore+%282014%29+HINDI+Pre+DVDRip+-+GOPI+SAHI","amp;tr":["udp%3A%2F%2Ftracker.openbittorrent.com%3A80","udp%3A%2F%2Fopen.demonii.com%3A1337","udp%3A%2F%2Ftracker.coppersurfer.tk%3A6969","udp%3A%2F%2Fexodus.desync.com%3A6969"],"infoHash":"faabca72ea26ce3f5cd075e802e4fcb7e497dc91","infoHashBuffer":{"type":"Buffer","data":[250,171,202,114,234,38,206,63,92,208,117,232,2,228,252,183,228,151,220,145]},"announce":[],"urlList":[]}}